REM DIRINDEX 1\2,1\3,1\4,1\5
REM DIRNAME folder01,folder02,folder03,folder04,folder05
TITLE ""
FILE "P1Q_t_0242-0251.mp3" MP3
  TRACK 01 AUDIO
    TITLE "3:cjc005_1627"
    INDEX 01 00:00:00
  TRACK 02 AUDIO
    TITLE "0:"
    INDEX 01 00:01:30
  TRACK 03 AUDIO
    TITLE "4:cjc005_1628"
    INDEX 01 00:01:50
  TRACK 04 AUDIO
    TITLE "0:"
    INDEX 01 00:03:08
  TRACK 05 AUDIO
    TITLE "5:cjc005_1629"
    INDEX 01 00:03:31
  TRACK 06 AUDIO
    TITLE "0:"
    INDEX 01 00:07:49
  TRACK 07 AUDIO
    TITLE "3:cjc005_1630"
    INDEX 01 00:08:28
  TRACK 08 AUDIO
    TITLE "0:"
    INDEX 01 00:09:38
  TRACK 09 AUDIO
    TITLE "4:cjc005_1631"
    INDEX 01 00:09:65
  TRACK 10 AUDIO
    TITLE "0:"
    INDEX 01 00:10:68
  TRACK 11 AUDIO
    TITLE "5:cjc005_1632"
    INDEX 01 00:11:19
  TRACK 12 AUDIO
    TITLE "0:"
    INDEX 01 00:14:29
  TRACK 13 AUDIO
    TITLE "3:cjc005_1633"
    INDEX 01 00:15:19
  TRACK 14 AUDIO
    TITLE "0:"
    INDEX 01 00:16:26
  TRACK 15 AUDIO
    TITLE "4:cjc005_1634"
    INDEX 01 00:16:51
  TRACK 16 AUDIO
    TITLE "0:"
    INDEX 01 00:18:01
  TRACK 17 AUDIO
    TITLE "5:cjc005_1635"
    INDEX 01 00:18:31
  TRACK 18 AUDIO
    TITLE "0:"
    INDEX 01 00:22:56
  TRACK 19 AUDIO
    TITLE "3:cjc005_1636"
    INDEX 01 00:23:38
  TRACK 20 AUDIO
    TITLE "0:"
    INDEX 01 00:24:43
  TRACK 21 AUDIO
    TITLE "4:cjc005_1637"
    INDEX 01 00:24:69
  TRACK 22 AUDIO
    TITLE "0:"
    INDEX 01 00:25:70
  TRACK 23 AUDIO
    TITLE "5:cjc005_1638"
    INDEX 01 00:26:24
  TRACK 24 AUDIO
    TITLE "0:"
    INDEX 01 00:29:52
  TRACK 25 AUDIO
    TITLE "3:cjc005_1639"
    INDEX 01 00:30:22
  TRACK 26 AUDIO
    TITLE "0:"
    INDEX 01 00:31:33
  TRACK 27 AUDIO
    TITLE "4:cjc005_1640"
    INDEX 01 00:31:55
  TRACK 28 AUDIO
    TITLE "0:"
    INDEX 01 00:32:70
  TRACK 29 AUDIO
    TITLE "5:cjc005_1641"
    INDEX 01 00:33:15
  TRACK 30 AUDIO
    TITLE "0:"
    INDEX 01 00:37:16
  TRACK 31 AUDIO
    TITLE "3:cjc005_1642"
    INDEX 01 00:37:67
  TRACK 32 AUDIO
    TITLE "0:"
    INDEX 01 00:39:09
  TRACK 33 AUDIO
    TITLE "4:cjc005_1643"
    INDEX 01 00:39:31
  TRACK 34 AUDIO
    TITLE "0:"
    INDEX 01 00:40:68
  TRACK 35 AUDIO
    TITLE "5:cjc005_1644"
    INDEX 01 00:41:12
  TRACK 36 AUDIO
    TITLE "0:"
    INDEX 01 00:45:08
  TRACK 37 AUDIO
    TITLE "3:cjc005_1645"
    INDEX 01 00:45:71
  TRACK 38 AUDIO
    TITLE "0:"
    INDEX 01 00:47:11
  TRACK 39 AUDIO
    TITLE "4:cjc005_1646"
    INDEX 01 00:47:36
  TRACK 40 AUDIO
    TITLE "0:"
    INDEX 01 00:48:44
  TRACK 41 AUDIO
    TITLE "5:cjc005_1647"
    INDEX 01 00:48:69
  TRACK 42 AUDIO
    TITLE "0:"
    INDEX 01 00:52:67
  TRACK 43 AUDIO
    TITLE "3:cjc005_1648"
    INDEX 01 00:53:39
  TRACK 44 AUDIO
    TITLE "0:"
    INDEX 01 00:54:50
  TRACK 45 AUDIO
    TITLE "4:cjc005_1649"
    INDEX 01 00:55:04
  TRACK 46 AUDIO
    TITLE "0:"
    INDEX 01 00:56:02
  TRACK 47 AUDIO
    TITLE "5:cjc005_1650"
    INDEX 01 00:56:29
  TRACK 48 AUDIO
    TITLE "0:"
    INDEX 01 00:59:73
  TRACK 49 AUDIO
    TITLE "3:cjc005_1651"
    INDEX 01 01:00:53
  TRACK 50 AUDIO
    TITLE "0:"
    INDEX 01 01:01:58
  TRACK 51 AUDIO
    TITLE "4:cjc005_1652"
    INDEX 01 01:02:10
  TRACK 52 AUDIO
    TITLE "0:"
    INDEX 01 01:03:10
  TRACK 53 AUDIO
    TITLE "5:cjc005_1653"
    INDEX 01 01:03:35
  TRACK 54 AUDIO
    TITLE "0:"
    INDEX 01 01:06:47
  TRACK 55 AUDIO
    TITLE "3:cjc005_1654"
    INDEX 01 01:07:27
  TRACK 56 AUDIO
    TITLE "0:"
    INDEX 01 01:08:52
  TRACK 57 AUDIO
    TITLE "4:cjc005_1655"
    INDEX 01 01:09:09
  TRACK 58 AUDIO
    TITLE "0:"
    INDEX 01 01:10:65
  TRACK 59 AUDIO
    TITLE "5:cjc005_1656"
    INDEX 01 01:11:11
  TRACK 60 AUDIO
    TITLE "0:"
    INDEX 01 01:14:08
